<svg width="760" height="920" viewBox="0 0 760 920" fill="none" xmlns="http://www.w3.org/2000/svg">
  <rect width="760" height="920" rx="40" fill="#0D121B"/>
  <rect x="26" y="26" width="708" height="868" rx="28" fill="url(#paint0_linear)"/>
  <circle cx="556" cy="186" r="150" fill="url(#paint1_radial)" fill-opacity="0.9"/>
  <circle cx="185" cy="712" r="172" fill="url(#paint2_radial)" fill-opacity="0.65"/>
  <path d="M437.284 276.886C491.203 288.258 536 333.25 536 411C536 527.937 452.07 628 348.5 628C244.93 628 161 527.937 161 411C161 334.062 206.52 288.972 261.014 277.168C278.593 235.851 312.053 205 349.5 205C386.556 205 419.479 235.21 437.284 276.886Z" fill="#161E2B"/>
  <path d="M302 599C319.333 621.667 342 633 370 633C398.667 633 421.333 621.667 438 599V696H302V599Z" fill="#D0A64B"/>
  <path d="M261 385C261 312.651 319.651 254 392 254C464.349 254 523 312.651 523 385V406C523 478.349 464.349 537 392 537C319.651 537 261 478.349 261 406V385Z" fill="#E6BC72"/>
  <path d="M248 385C248 289.977 325.977 212 421 212H433C496.961 212 549 264.039 549 328V345C549 353.837 541.837 361 533 361H520V416H496V361H341C289.638 361 248 402.638 248 454V385Z" fill="#0F1722"/>
  <path d="M328 432C339.598 432 349 422.598 349 411C349 399.402 339.598 390 328 390C316.402 390 307 399.402 307 411C307 422.598 316.402 432 328 432Z" fill="#0F1722"/>
  <path d="M451 432C462.598 432 472 422.598 472 411C472 399.402 462.598 390 451 390C439.402 390 430 399.402 430 411C430 422.598 439.402 432 451 432Z" fill="#0F1722"/>
  <path d="M347 480C362.064 494.61 381.44 501.915 405.127 501.915C428.814 501.915 448.127 494.61 463.064 480" stroke="#0F1722" stroke-width="17" stroke-linecap="round"/>
  <rect x="173" y="732" width="418" height="96" rx="22" fill="#101823" fill-opacity="0.78" stroke="#C9A84C" stroke-opacity="0.36"/>
  <text x="208" y="782" fill="#F3E8C6" font-family="Arial, sans-serif" font-size="28" letter-spacing="3">GODS LINK</text>
  <text x="208" y="813" fill="#A6B0BE" font-family="Arial, sans-serif" font-size="18" letter-spacing="2">DIGITAL CRAFTSMANSHIP</text>
  <defs>
    <linearGradient id="paint0_linear" x1="86" y1="70" x2="631" y2="842" gradientUnits="userSpaceOnUse">
      <stop stop-color="#111A26"/>
      <stop offset="1" stop-color="#070A10"/>
    </linearGradient>
    <radialGradient id="paint1_radial" cx="0" cy="0" r="1" gradientUnits="userSpaceOnUse" gradientTransform="translate(556 186) rotate(90) scale(150)">
      <stop stop-color="#D2AC56"/>
      <stop offset="1" stop-color="#D2AC56" stop-opacity="0"/>
    </radialGradient>
    <radialGradient id="paint2_radial" cx="0" cy="0" r="1" gradientUnits="userSpaceOnUse" gradientTransform="translate(185 712) rotate(90) scale(172)">
      <stop stop-color="#23497A"/>
      <stop offset="1" stop-color="#23497A" stop-opacity="0"/>
    </radialGradient>
  </defs>
</svg>
